<svg width="300" height="360" viewBox="0 0 300 360" fill="none" xmlns="http://www.w3.org/2000/svg">
<path d="M183.755 360H115.475C105.835 357.223 106.103 348.264 107.442 344.132C108.781 340 128.528 323.306 128.528 323.306L164.175 316.364L183.755 335.702C197.813 349.587 189.613 357.686 183.755 360Z" fill="#BA000D"/>
<path fill-rule="evenodd" clip-rule="evenodd" d="M300 150.751C285.44 -76.852 -17.2058 -21.7704 0.769826 150.751C5.11874 192.489 18.2444 224.856 36.724 248.706C55.6081 277.189 84.0174 307.47 122.269 322.818C184.912 347.952 248.826 274.93 274.952 232.343C289.722 209.901 299.022 182.466 300 150.751Z" fill="#F44336"/>
<path d="M43.1775 151.736C44.3825 64.0661 113.467 41.6529 152.627 43.1405C165.179 43.6173 160.158 62.3441 152.627 62.9752C69.7869 69.9173 66.7745 126.942 63.7621 148.76C61.4438 165.552 43.0753 159.174 43.1775 151.736Z" fill="#E57373"/>
</svg>
